<?xml version="1.0" standalone="no"?>
<!DOCTYPE svg PUBLIC "-//W3C//DTD SVG 20010904//EN"
 "http://www.w3.org/TR/2001/REC-SVG-20010904/DTD/svg10.dtd">
<svg version="1.0" xmlns="http://www.w3.org/2000/svg"
 width="512.000000pt" height="512.000000pt" viewBox="0 0 512.000000 512.000000"
 preserveAspectRatio="xMidYMid meet">
<g transform="translate(0.000000,512.000000) scale(0.100000,-0.100000)"
fill="#000000" stroke="none">
<path d="M2889 4247 c-24 -13 -56 -41 -71 -63 -21 -30 -124 -379 -463 -1564
-239 -839 -435 -1541 -435 -1561 0 -52 46 -136 91 -166 54 -35 103 -45 168
-32 44 9 63 20 100 58 l47 46 437 1530 c287 1006 437 1546 437 1575 0 65 -50
146 -109 177 -60 31 -142 31 -202 0z m196 -33 c14 -12 21 -25 17 -30 -4 -4 2
-2 12 6 13 10 17 10 12 3 -4 -7 -3 -13 3 -13 22 0 54 -132 41 -165 -3 -6 -3
-6 -20 -70 -8 -27 -12 -52 -11 -54 2 -2 -1 -7 -6 -10 -8 -5 -32 -89 -49 -169
-2 -13 -11 -43 -20 -65 -8 -23 -17 -50 -19 -61 -2 -10 -12 -44 -21 -75 -9 -31
-18 -63 -20 -71 -2 -8 -7 -31 -12 -50 -5 -19 -11 -42 -13 -50 -2 -8 -7 -17
-10 -20 -6 -4 -27 -86 -45 -168 -2 -13 -11 -43 -20 -65 -8 -23 -17 -50 -19
-61 -2 -10 -12 -44 -21 -75 -9 -31 -18 -63 -20 -71 -2 -8 -7 -31 -12 -50 -5
-19 -11 -42 -13 -50 -2 -8 -7 -17 -10 -20 -6 -4 -27 -86 -45 -168 -2 -13 -11
-43 -20 -65 -8 -23 -17 -50 -19 -61 -2 -10 -12 -44 -21 -75 -9 -31 -18 -63
-20 -71 -2 -8 -7 -31 -12 -50 -5 -19 -11 -42 -13 -50 -2 -8 -7 -17 -10 -20 -6
-4 -27 -86 -45 -168 -2 -13 -11 -43 -20 -65 -8 -23 -17 -50 -19 -61 -2 -10
-12 -44 -21 -75 -9 -31 -18 -63 -20 -71 -2 -8 -7 -31 -12 -50 -5 -19 -11 -42
-13 -50 -2 -8 -7 -17 -10 -20 -6 -4 -27 -86 -45 -168 -2 -13 -11 -43 -20 -65
-8 -23 -17 -50 -19 -61 -2 -10 -12 -44 -21 -75 -9 -31 -18 -63 -19 -71 -2 -8
-10 -36 -18 -62 -8 -26 -12 -49 -9 -52 3 -4 0 -6 -6 -6 -7 0 -12 -9 -12 -20 0
-27 -30 -100 -42 -100 -5 0 -7 -4 -3 -9 3 -5 -4 -12 -15 -16 -11 -3 -20 -10
-20 -15 0 -16 -68 -31 -129 -29 -33 1 -58 6 -56 10 3 4 -6 10 -19 13 -13 3
-37 26 -54 52 -27 40 -30 52 -28 107 2 34 11 87 20 117 10 30 26 89 38 130 11
41 36 127 55 190 20 63 37 124 38 135 2 11 4 20 5 20 1 0 3 7 5 15 2 8 11 40
20 70 9 30 25 89 37 130 11 41 36 127 55 190 20 63 37 124 38 135 2 11 4 20 5
20 1 0 3 7 5 15 2 8 11 40 20 70 9 30 25 89 37 130 11 41 36 127 55 190 20 63
37 124 38 135 2 11 4 20 5 20 1 0 3 7 5 15 2 8 11 40 20 70 9 30 25 89 37 130
11 41 36 127 55 190 20 63 37 124 38 135 2 11 4 20 5 20 1 0 3 7 5 15 2 8 11
40 20 70 9 30 25 89 37 130 11 41 36 127 55 190 20 63 37 124 38 135 2 11 4
21 5 23 2 1 3 5 4 10 1 4 11 39 23 77 12 39 27 89 33 113 13 50 52 95 101 117
50 22 143 16 174 -11z"/>
<path d="M1210 3617 c-27 -8 -146 -120 -493 -466 -267 -265 -467 -473 -480
-496 -28 -53 -28 -135 1 -190 12 -24 204 -223 479 -496 391 -389 464 -457 499
-467 58 -17 102 -15 149 7 96 43 145 139 124 241 l-11 55 -376 377 -376 378
376 378 376 377 11 55 c34 165 -115 297 -279 247z m131 -32 c40 -7 95 -54 111
-94 10 -27 12 -99 3 -140 -5 -25 -43 -71 -102 -124 -18 -16 -30 -34 -26 -41 3
-6 3 -8 -1 -4 -11 9 -86 -63 -79 -76 3 -6 3 -8 -1 -4 -11 9 -86 -63 -79 -76 3
-6 3 -8 -1 -4 -11 9 -86 -63 -79 -76 3 -6 3 -8 -1 -4 -11 9 -86 -63 -79 -76 3
-6 3 -8 -1 -4 -11 9 -86 -63 -79 -76 3 -6 3 -8 -1 -4 -11 9 -86 -63 -79 -76 3
-6 3 -8 -2 -4 -12 11 -135 -119 -135 -142 0 -23 123 -153 135 -142 5 4 5 2 2
-4 -7 -13 68 -85 79 -76 4 4 4 2 1 -4 -7 -13 68 -85 79 -76 4 4 4 2 1 -4 -7
-13 68 -85 79 -76 4 4 4 2 1 -4 -7 -13 68 -85 79 -76 4 4 4 2 1 -4 -7 -13 68
-85 79 -76 4 4 4 2 1 -4 -7 -12 68 -85 78 -76 4 4 5 2 3 -4 -1 -6 25 -39 60
-75 34 -35 62 -71 62 -81 0 -9 4 -19 9 -23 14 -8 5 -99 -14 -136 -42 -81 -130
-112 -242 -86 -4 1 -20 13 -35 27 -53 45 -873 869 -876 880 -2 5 -9 7 -15 3
-7 -3 -9 -3 -5 2 4 4 1 17 -7 29 -20 28 -20 144 0 172 8 12 12 24 10 28 -3 3
-2 4 1 2 8 -6 33 17 28 25 -2 3 15 19 36 35 22 16 42 36 45 44 3 8 21 26 40
40 19 14 37 32 40 40 3 8 21 26 40 40 19 14 37 32 40 40 3 8 21 26 40 40 19
14 37 32 40 40 3 8 21 26 40 40 19 14 37 32 40 40 3 8 21 26 40 40 19 14 37
33 40 43 4 9 10 17 15 17 5 0 39 32 77 71 37 39 81 83 97 97 16 15 34 33 40
40 6 7 24 25 40 40 16 15 34 33 40 40 45 54 87 84 139 99 23 6 49 10 57 8 8
-2 31 -7 51 -10z"/>
<path d="M3755 3611 c-96 -43 -145 -139 -124 -241 l11 -55 376 -377 376 -378
-376 -378 -376 -377 -11 -55 c-35 -171 132 -310 289 -239 34 15 155 129 493
467 265 264 457 463 469 487 28 54 28 136 0 190 -12 24 -205 223 -479 496
-391 389 -464 457 -499 467 -58 17 -102 15 -149 -7z m199 -55 c38 -29 300
-292 304 -306 2 -5 8 -10 13 -10 10 0 69 -59 69 -69 0 -3 16 -17 35 -30 19
-13 37 -31 40 -40 3 -9 21 -27 40 -40 19 -13 37 -31 40 -40 3 -9 21 -27 40
-40 19 -13 37 -31 40 -40 3 -9 21 -27 40 -40 19 -13 37 -31 40 -40 3 -9 21
-27 40 -40 19 -13 37 -31 40 -40 3 -9 18 -25 34 -35 16 -11 36 -31 44 -45 8
-14 25 -37 36 -50 29 -33 30 -142 2 -185 -27 -41 -880 -894 -916 -915 -106
-65 -249 -10 -273 104 -14 67 -3 126 30 163 76 82 591 592 599 592 5 0 12 7
15 15 3 8 28 37 55 65 27 28 49 59 49 70 0 11 -22 43 -50 71 -27 28 -50 56
-50 61 0 5 -7 11 -15 14 -28 11 -615 607 -621 631 -4 12 -9 21 -13 19 -8 -5
-7 59 3 112 21 112 191 164 290 88z"/>
<path d="M1490 3586 c0 -2 8 -10 18 -17 15 -13 16 -12 3 4 -13 16 -21 21 -21
13z"/>
<path d="M3611 3577 c-8 -10 -7 -14 2 -14 8 0 14 6 14 14 0 7 -1 13 -2 13 -2
0 -8 -6 -14 -13z"/>
<path d="M1493 1545 c0 -8 4 -12 9 -9 5 3 6 10 3 15 -9 13 -12 11 -12 -6z"/>
<path d="M3600 1556 c0 -2 8 -10 18 -17 15 -13 16 -12 3 4 -13 16 -21 21 -21
13z"/>
</g>
</svg>
